<mxfile host="app.diagrams.net" modified="2020-09-17T01:55:19.808Z" agent="5.0 (X11; Linux x86_64) AppleWebKit/537.36 (KHTML, like Gecko) Chrome/85.0.4183.83 Safari/537.36" etag="HJyN06ujBOzQfilZt9-t" version="13.7.2" type="github">
  <diagram id="gO4BHP992b6xuWN-tZSf" name="Page-1">
    <mxGraphModel dx="803" dy="497" grid="1" gridSize="10" guides="1" tooltips="1" connect="1" arrows="1" fold="1" page="1" pageScale="1" pageWidth="850" pageHeight="1100" math="0" shadow="0">
      <root>
        <mxCell id="0" />
        <mxCell id="1" parent="0" />
        <mxCell id="vOWSISuVwLlkxFTcUKzz-1" value="" style="rounded=0;whiteSpace=wrap;html=1;strokeWidth=3;" vertex="1" parent="1">
          <mxGeometry x="20" y="10" width="710" height="160" as="geometry" />
        </mxCell>
        <mxCell id="vOWSISuVwLlkxFTcUKzz-3" value="" style="rounded=0;whiteSpace=wrap;html=1;strokeWidth=3;" vertex="1" parent="1">
          <mxGeometry x="240" y="220" width="350" height="420" as="geometry" />
        </mxCell>
      </root>
    </mxGraphModel>
  </diagram>
</mxfile>
